# xmcd CD database file
#
# Track frame offsets:
#	150
#	11715
#	25920
#	42052
#	54074
#	70096
#	85519
#	103142
#	111765
#	126351
#
# Disc length: 2044 seconds
#
# Revision: 0
# Processed by: cddbd v1.5.1PL0 Copyright (c) Steve Scherf et al.
# Submitted via: CDex 1.51
#
DISCID=7507fa0a
DTITLE=DOACOCK - room
DYEAR=2005
DGENRE=JPop
TTITLE0=Game Over
TTITLE1=Give me a bit of time
TTITLE2=A path
TTITLE3=my cafe
TTITLE4=Daily Life
TTITLE5=An Excuse
TTITLE6=My Hometown
TTITLE7=You're a fighter
TTITLE8=BOX
TTITLE9=Be just who you are
EXTD=YEAR: 2005/03
EXTT0=
EXTT1=
EXTT2=
EXTT3=
EXTT4=
EXTT5=
EXTT6=
EXTT7=
EXTT8=
EXTT9=
PLAYORDER=
